<mxfile host="65bd71144e">
    <diagram id="RshSFwmVA1gjf0BuG21r" name="発注処理">
        <mxGraphModel dx="809" dy="1508" grid="1" gridSize="10" guides="1" tooltips="1" connect="1" arrows="1" fold="1" page="1" pageScale="1" pageWidth="827" pageHeight="1169" math="0" shadow="0">
            <root>
                <mxCell id="0"/>
                <mxCell id="1" parent="0"/>
                <mxCell id="KzR9wPOTO-NK81SmBr81-19" value="登録" style="rounded=0;whiteSpace=wrap;html=1;" parent="1" vertex="1">
                    <mxGeometry x="80" y="-1040" width="40" height="40" as="geometry"/>
                </mxCell>
                <mxCell id="KzR9wPOTO-NK81SmBr81-24" value="プリンタ" style="rounded=0;whiteSpace=wrap;html=1;" parent="1" vertex="1">
                    <mxGeometry x="160" y="-1040" width="40" height="40" as="geometry"/>
                </mxCell>
                <mxCell id="KzR9wPOTO-NK81SmBr81-25" value="キャンセル" style="rounded=0;whiteSpace=wrap;html=1;" parent="1" vertex="1">
                    <mxGeometry x="240" y="-1040" width="40" height="40" as="geometry"/>
                </mxCell>
                <mxCell id="KzR9wPOTO-NK81SmBr81-26" value="&lt;br&gt;次页" style="rounded=0;whiteSpace=wrap;html=1;" parent="1" vertex="1">
                    <mxGeometry x="400" y="-1040" width="40" height="40" as="geometry"/>
                </mxCell>
                <mxCell id="KzR9wPOTO-NK81SmBr81-27" value="&lt;br&gt;次页" style="rounded=0;whiteSpace=wrap;html=1;" parent="1" vertex="1">
                    <mxGeometry x="320" y="-1040" width="40" height="40" as="geometry"/>
                </mxCell>
                <mxCell id="KzR9wPOTO-NK81SmBr81-28" value="" style="shape=flexArrow;endArrow=classic;html=1;endWidth=5;endSize=3.89;" parent="1" edge="1">
                    <mxGeometry width="50" height="50" relative="1" as="geometry">
                        <mxPoint x="407" y="-1030" as="sourcePoint"/>
                        <mxPoint x="437" y="-1030" as="targetPoint"/>
                    </mxGeometry>
                </mxCell>
                <mxCell id="KzR9wPOTO-NK81SmBr81-29" value="" style="shape=flexArrow;endArrow=classic;html=1;endWidth=5;endSize=3.89;" parent="1" edge="1">
                    <mxGeometry width="50" height="50" relative="1" as="geometry">
                        <mxPoint x="355" y="-1030" as="sourcePoint"/>
                        <mxPoint x="325" y="-1030" as="targetPoint"/>
                    </mxGeometry>
                </mxCell>
                <mxCell id="KzR9wPOTO-NK81SmBr81-30" value="参照" style="rounded=0;whiteSpace=wrap;html=1;" parent="1" vertex="1">
                    <mxGeometry x="484" y="-1040" width="40" height="40" as="geometry"/>
                </mxCell>
                <mxCell id="KzR9wPOTO-NK81SmBr81-31" value="✖&lt;br&gt;終了" style="rounded=0;whiteSpace=wrap;html=1;" parent="1" vertex="1">
                    <mxGeometry x="720" y="-1040" width="40" height="40" as="geometry"/>
                </mxCell>
                <mxCell id="KzR9wPOTO-NK81SmBr81-46" value="発注日" style="rounded=0;whiteSpace=wrap;html=1;fillColor=#B8B8B8;" parent="1" vertex="1">
                    <mxGeometry x="40" y="-960" width="80" height="31" as="geometry"/>
                </mxCell>
                <mxCell id="KzR9wPOTO-NK81SmBr81-47" value="&lt;span&gt;2021年10月14日&lt;/span&gt;" style="rounded=0;whiteSpace=wrap;html=1;" parent="1" vertex="1">
                    <mxGeometry x="120" y="-960" width="96" height="31" as="geometry"/>
                </mxCell>
                <mxCell id="KzR9wPOTO-NK81SmBr81-48" value="" style="rounded=0;whiteSpace=wrap;html=1;" parent="1" vertex="1">
                    <mxGeometry x="203" y="-929" width="80" as="geometry"/>
                </mxCell>
                <mxCell id="KzR9wPOTO-NK81SmBr81-49" value="納期回答日" style="rounded=0;whiteSpace=wrap;html=1;fillColor=#B8B8B8;" parent="1" vertex="1">
                    <mxGeometry x="216" y="-960" width="80" height="31" as="geometry"/>
                </mxCell>
                <mxCell id="KzR9wPOTO-NK81SmBr81-58" value="&lt;span&gt;2021年10月14日&lt;/span&gt;" style="rounded=0;whiteSpace=wrap;html=1;" parent="1" vertex="1">
                    <mxGeometry x="296" y="-960" width="104" height="31" as="geometry"/>
                </mxCell>
                <mxCell id="KzR9wPOTO-NK81SmBr81-64" value="" style="rounded=0;whiteSpace=wrap;html=1;" parent="1" vertex="1">
                    <mxGeometry x="8" y="-818" width="812" height="320" as="geometry"/>
                </mxCell>
                <mxCell id="KzR9wPOTO-NK81SmBr81-65" value="" style="rounded=0;whiteSpace=wrap;html=1;fillColor=#B8B8B8;" parent="1" vertex="1">
                    <mxGeometry x="8" y="-818" width="812" height="40" as="geometry"/>
                </mxCell>
                <mxCell id="KzR9wPOTO-NK81SmBr81-66" value="&lt;span&gt;発注NO&lt;/span&gt;" style="rounded=0;whiteSpace=wrap;html=1;fillColor=#B8B8B8;" parent="1" vertex="1">
                    <mxGeometry x="8" y="-818" width="70" height="40" as="geometry"/>
                </mxCell>
                <mxCell id="KzR9wPOTO-NK81SmBr81-68" value="発注数" style="rounded=0;whiteSpace=wrap;html=1;fillColor=#B8B8B8;" parent="1" vertex="1">
                    <mxGeometry x="268" y="-818" width="110" height="40" as="geometry"/>
                </mxCell>
                <mxCell id="KzR9wPOTO-NK81SmBr81-69" value="発注金額" style="rounded=0;whiteSpace=wrap;html=1;fillColor=#B8B8B8;" parent="1" vertex="1">
                    <mxGeometry x="378" y="-818" width="72" height="40" as="geometry"/>
                </mxCell>
                <mxCell id="KzR9wPOTO-NK81SmBr81-71" value="商品名" style="rounded=0;whiteSpace=wrap;html=1;fillColor=#B8B8B8;" parent="1" vertex="1">
                    <mxGeometry x="78" y="-818" width="130" height="40" as="geometry"/>
                </mxCell>
                <mxCell id="KzR9wPOTO-NK81SmBr81-75" value="単位" style="rounded=0;whiteSpace=wrap;html=1;fillColor=#B8B8B8;" parent="1" vertex="1">
                    <mxGeometry x="208" y="-818" width="60" height="40" as="geometry"/>
                </mxCell>
                <mxCell id="KzR9wPOTO-NK81SmBr81-76" value="" style="rounded=0;whiteSpace=wrap;html=1;" parent="1" vertex="1">
                    <mxGeometry x="8" y="-778" width="812" height="40" as="geometry"/>
                </mxCell>
                <mxCell id="KzR9wPOTO-NK81SmBr81-77" value="001" style="rounded=0;whiteSpace=wrap;html=1;" parent="1" vertex="1">
                    <mxGeometry x="8" y="-778" width="70" height="40" as="geometry"/>
                </mxCell>
                <mxCell id="KzR9wPOTO-NK81SmBr81-78" value="2" style="rounded=0;whiteSpace=wrap;html=1;" parent="1" vertex="1">
                    <mxGeometry x="268" y="-778" width="110" height="40" as="geometry"/>
                </mxCell>
                <mxCell id="KzR9wPOTO-NK81SmBr81-79" value="25000" style="rounded=0;whiteSpace=wrap;html=1;" parent="1" vertex="1">
                    <mxGeometry x="378" y="-778" width="72" height="40" as="geometry"/>
                </mxCell>
                <mxCell id="KzR9wPOTO-NK81SmBr81-80" value="pc1" style="rounded=0;whiteSpace=wrap;html=1;" parent="1" vertex="1">
                    <mxGeometry x="78" y="-778" width="130" height="40" as="geometry"/>
                </mxCell>
                <mxCell id="KzR9wPOTO-NK81SmBr81-81" value="台" style="rounded=0;whiteSpace=wrap;html=1;" parent="1" vertex="1">
                    <mxGeometry x="208" y="-778" width="60" height="40" as="geometry"/>
                </mxCell>
                <mxCell id="KzR9wPOTO-NK81SmBr81-83" value="" style="rounded=0;whiteSpace=wrap;html=1;" parent="1" vertex="1">
                    <mxGeometry x="8" y="-738" width="812" height="40" as="geometry"/>
                </mxCell>
                <mxCell id="KzR9wPOTO-NK81SmBr81-84" value="" style="rounded=0;whiteSpace=wrap;html=1;" parent="1" vertex="1">
                    <mxGeometry x="8" y="-698" width="812" height="40" as="geometry"/>
                </mxCell>
                <mxCell id="KzR9wPOTO-NK81SmBr81-85" value="" style="rounded=0;whiteSpace=wrap;html=1;" parent="1" vertex="1">
                    <mxGeometry x="8" y="-658" width="812" height="40" as="geometry"/>
                </mxCell>
                <mxCell id="KzR9wPOTO-NK81SmBr81-86" value="" style="rounded=0;whiteSpace=wrap;html=1;" parent="1" vertex="1">
                    <mxGeometry x="8" y="-618" width="812" height="40" as="geometry"/>
                </mxCell>
                <mxCell id="KzR9wPOTO-NK81SmBr81-87" value="" style="rounded=0;whiteSpace=wrap;html=1;" parent="1" vertex="1">
                    <mxGeometry x="8" y="-578" width="812" height="40" as="geometry"/>
                </mxCell>
                <mxCell id="KzR9wPOTO-NK81SmBr81-88" value="003" style="rounded=0;whiteSpace=wrap;html=1;" parent="1" vertex="1">
                    <mxGeometry x="8" y="-698" width="70" height="40" as="geometry"/>
                </mxCell>
                <mxCell id="KzR9wPOTO-NK81SmBr81-89" value="004" style="rounded=0;whiteSpace=wrap;html=1;" parent="1" vertex="1">
                    <mxGeometry x="8" y="-658" width="70" height="40" as="geometry"/>
                </mxCell>
                <mxCell id="KzR9wPOTO-NK81SmBr81-90" value="005" style="rounded=0;whiteSpace=wrap;html=1;" parent="1" vertex="1">
                    <mxGeometry x="8" y="-618" width="70" height="40" as="geometry"/>
                </mxCell>
                <mxCell id="KzR9wPOTO-NK81SmBr81-91" value="006" style="rounded=0;whiteSpace=wrap;html=1;" parent="1" vertex="1">
                    <mxGeometry x="8" y="-578" width="70" height="40" as="geometry"/>
                </mxCell>
                <mxCell id="KzR9wPOTO-NK81SmBr81-92" value="007" style="rounded=0;whiteSpace=wrap;html=1;" parent="1" vertex="1">
                    <mxGeometry x="8" y="-538" width="70" height="40" as="geometry"/>
                </mxCell>
                <mxCell id="KzR9wPOTO-NK81SmBr81-93" value="002" style="rounded=0;whiteSpace=wrap;html=1;" parent="1" vertex="1">
                    <mxGeometry x="8" y="-738" width="70" height="40" as="geometry"/>
                </mxCell>
                <mxCell id="KzR9wPOTO-NK81SmBr81-96" value="pc2" style="rounded=0;whiteSpace=wrap;html=1;" parent="1" vertex="1">
                    <mxGeometry x="78" y="-738" width="130" height="40" as="geometry"/>
                </mxCell>
                <mxCell id="KzR9wPOTO-NK81SmBr81-98" value="pc4" style="rounded=0;whiteSpace=wrap;html=1;" parent="1" vertex="1">
                    <mxGeometry x="78" y="-658" width="130" height="40" as="geometry"/>
                </mxCell>
                <mxCell id="KzR9wPOTO-NK81SmBr81-99" value="pc5" style="rounded=0;whiteSpace=wrap;html=1;" parent="1" vertex="1">
                    <mxGeometry x="78" y="-618" width="130" height="40" as="geometry"/>
                </mxCell>
                <mxCell id="KzR9wPOTO-NK81SmBr81-100" value="pc6" style="rounded=0;whiteSpace=wrap;html=1;" parent="1" vertex="1">
                    <mxGeometry x="78" y="-578" width="130" height="40" as="geometry"/>
                </mxCell>
                <mxCell id="KzR9wPOTO-NK81SmBr81-101" value="pc7" style="rounded=0;whiteSpace=wrap;html=1;" parent="1" vertex="1">
                    <mxGeometry x="78" y="-538" width="130" height="40" as="geometry"/>
                </mxCell>
                <mxCell id="KzR9wPOTO-NK81SmBr81-102" value="pc3" style="rounded=0;whiteSpace=wrap;html=1;" parent="1" vertex="1">
                    <mxGeometry x="78" y="-698" width="130" height="40" as="geometry"/>
                </mxCell>
                <mxCell id="KzR9wPOTO-NK81SmBr81-103" value="台" style="rounded=0;whiteSpace=wrap;html=1;" parent="1" vertex="1">
                    <mxGeometry x="208" y="-738" width="60" height="40" as="geometry"/>
                </mxCell>
                <mxCell id="KzR9wPOTO-NK81SmBr81-105" value="台" style="rounded=0;whiteSpace=wrap;html=1;" parent="1" vertex="1">
                    <mxGeometry x="208" y="-698" width="60" height="40" as="geometry"/>
                </mxCell>
                <mxCell id="KzR9wPOTO-NK81SmBr81-106" value="台" style="rounded=0;whiteSpace=wrap;html=1;" parent="1" vertex="1">
                    <mxGeometry x="208" y="-658" width="60" height="40" as="geometry"/>
                </mxCell>
                <mxCell id="KzR9wPOTO-NK81SmBr81-107" value="台" style="rounded=0;whiteSpace=wrap;html=1;" parent="1" vertex="1">
                    <mxGeometry x="208" y="-618" width="60" height="40" as="geometry"/>
                </mxCell>
                <mxCell id="KzR9wPOTO-NK81SmBr81-108" value="台" style="rounded=0;whiteSpace=wrap;html=1;" parent="1" vertex="1">
                    <mxGeometry x="208" y="-578" width="60" height="40" as="geometry"/>
                </mxCell>
                <mxCell id="KzR9wPOTO-NK81SmBr81-109" value="台" style="rounded=0;whiteSpace=wrap;html=1;" parent="1" vertex="1">
                    <mxGeometry x="208" y="-538" width="60" height="40" as="geometry"/>
                </mxCell>
                <mxCell id="KzR9wPOTO-NK81SmBr81-111" value="発注日" style="rounded=0;whiteSpace=wrap;html=1;fillColor=#B8B8B8;" parent="1" vertex="1">
                    <mxGeometry x="488" y="-818" width="102" height="40" as="geometry"/>
                </mxCell>
                <mxCell id="KzR9wPOTO-NK81SmBr81-112" value="&lt;span&gt;2021年10月14日&lt;/span&gt;" style="rounded=0;whiteSpace=wrap;html=1;" parent="1" vertex="1">
                    <mxGeometry x="488" y="-778" width="102" height="40" as="geometry"/>
                </mxCell>
                <mxCell id="KzR9wPOTO-NK81SmBr81-113" value="納期回答日" style="rounded=0;whiteSpace=wrap;html=1;fillColor=#B8B8B8;" parent="1" vertex="1">
                    <mxGeometry x="590" y="-818" width="102" height="40" as="geometry"/>
                </mxCell>
                <mxCell id="KzR9wPOTO-NK81SmBr81-114" value="&lt;span&gt;2021年10月14日&lt;/span&gt;" style="rounded=0;whiteSpace=wrap;html=1;" parent="1" vertex="1">
                    <mxGeometry x="590" y="-778" width="102" height="40" as="geometry"/>
                </mxCell>
                <mxCell id="KzR9wPOTO-NK81SmBr81-115" value="状態" style="rounded=0;whiteSpace=wrap;html=1;fillColor=#B8B8B8;" parent="1" vertex="1">
                    <mxGeometry x="692" y="-818" width="128" height="40" as="geometry"/>
                </mxCell>
                <mxCell id="KzR9wPOTO-NK81SmBr81-118" value="完了" style="rounded=0;whiteSpace=wrap;html=1;" parent="1" vertex="1">
                    <mxGeometry x="692" y="-778" width="128" height="40" as="geometry"/>
                </mxCell>
                <mxCell id="KzR9wPOTO-NK81SmBr81-119" value="入力担当者" style="rounded=0;whiteSpace=wrap;html=1;fillColor=#B8B8B8;" parent="1" vertex="1">
                    <mxGeometry x="40" y="-919" width="120" height="40" as="geometry"/>
                </mxCell>
                <mxCell id="KzR9wPOTO-NK81SmBr81-120" value="00010" style="rounded=0;whiteSpace=wrap;html=1;" parent="1" vertex="1">
                    <mxGeometry x="160" y="-919" width="110" height="40" as="geometry"/>
                </mxCell>
                <mxCell id="KzR9wPOTO-NK81SmBr81-121" value="山田太郎" style="rounded=0;whiteSpace=wrap;html=1;" parent="1" vertex="1">
                    <mxGeometry x="270" y="-919" width="130" height="40" as="geometry"/>
                </mxCell>
                <mxCell id="KzR9wPOTO-NK81SmBr81-129" value="備考" style="rounded=0;whiteSpace=wrap;html=1;fillColor=#B8B8B8;" parent="1" vertex="1">
                    <mxGeometry x="22" y="-363" width="70" height="40" as="geometry"/>
                </mxCell>
                <mxCell id="KzR9wPOTO-NK81SmBr81-130" value="" style="rounded=0;whiteSpace=wrap;html=1;fillColor=none;" parent="1" vertex="1">
                    <mxGeometry x="92" y="-363" width="690" height="40" as="geometry"/>
                </mxCell>
                <mxCell id="qiQPY6fA3aQvSLMe_C2b-2" value="金額 / 総合計" style="rounded=0;whiteSpace=wrap;html=1;fillColor=#B3B3B3;" parent="1" vertex="1">
                    <mxGeometry x="67" y="-449" width="120" height="40" as="geometry"/>
                </mxCell>
                <mxCell id="qiQPY6fA3aQvSLMe_C2b-3" value="税率" style="rounded=0;whiteSpace=wrap;html=1;fillColor=#B8B8B8;" parent="1" vertex="1">
                    <mxGeometry x="450" y="-818" width="40" height="40" as="geometry"/>
                </mxCell>
                <mxCell id="qiQPY6fA3aQvSLMe_C2b-4" value="8%" style="rounded=0;whiteSpace=wrap;html=1;fillColor=#FFFFFF;" parent="1" vertex="1">
                    <mxGeometry x="450" y="-778" width="40" height="40" as="geometry"/>
                </mxCell>
                <mxCell id="qiQPY6fA3aQvSLMe_C2b-5" value="2" style="rounded=0;whiteSpace=wrap;html=1;" parent="1" vertex="1">
                    <mxGeometry x="268" y="-738" width="110" height="40" as="geometry"/>
                </mxCell>
                <mxCell id="qiQPY6fA3aQvSLMe_C2b-6" value="8" style="rounded=0;whiteSpace=wrap;html=1;" parent="1" vertex="1">
                    <mxGeometry x="268" y="-658" width="110" height="40" as="geometry"/>
                </mxCell>
                <mxCell id="qiQPY6fA3aQvSLMe_C2b-7" value="23" style="rounded=0;whiteSpace=wrap;html=1;" parent="1" vertex="1">
                    <mxGeometry x="268" y="-618" width="110" height="40" as="geometry"/>
                </mxCell>
                <mxCell id="qiQPY6fA3aQvSLMe_C2b-8" value="4" style="rounded=0;whiteSpace=wrap;html=1;" parent="1" vertex="1">
                    <mxGeometry x="268" y="-578" width="110" height="40" as="geometry"/>
                </mxCell>
                <mxCell id="qiQPY6fA3aQvSLMe_C2b-9" value="7" style="rounded=0;whiteSpace=wrap;html=1;" parent="1" vertex="1">
                    <mxGeometry x="268" y="-538" width="110" height="40" as="geometry"/>
                </mxCell>
                <mxCell id="qiQPY6fA3aQvSLMe_C2b-10" value="5" style="rounded=0;whiteSpace=wrap;html=1;" parent="1" vertex="1">
                    <mxGeometry x="268" y="-698" width="110" height="40" as="geometry"/>
                </mxCell>
                <mxCell id="qiQPY6fA3aQvSLMe_C2b-11" value="3400" style="rounded=0;whiteSpace=wrap;html=1;" parent="1" vertex="1">
                    <mxGeometry x="378" y="-738" width="72" height="40" as="geometry"/>
                </mxCell>
                <mxCell id="qiQPY6fA3aQvSLMe_C2b-12" value="5000" style="rounded=0;whiteSpace=wrap;html=1;" parent="1" vertex="1">
                    <mxGeometry x="378" y="-698" width="72" height="40" as="geometry"/>
                </mxCell>
                <mxCell id="qiQPY6fA3aQvSLMe_C2b-13" value="2500" style="rounded=0;whiteSpace=wrap;html=1;" parent="1" vertex="1">
                    <mxGeometry x="378" y="-658" width="72" height="40" as="geometry"/>
                </mxCell>
                <mxCell id="qiQPY6fA3aQvSLMe_C2b-14" value="500" style="rounded=0;whiteSpace=wrap;html=1;" parent="1" vertex="1">
                    <mxGeometry x="378" y="-618" width="72" height="40" as="geometry"/>
                </mxCell>
                <mxCell id="qiQPY6fA3aQvSLMe_C2b-15" value="5400" style="rounded=0;whiteSpace=wrap;html=1;" parent="1" vertex="1">
                    <mxGeometry x="378" y="-578" width="72" height="40" as="geometry"/>
                </mxCell>
                <mxCell id="qiQPY6fA3aQvSLMe_C2b-16" value="3000" style="rounded=0;whiteSpace=wrap;html=1;" parent="1" vertex="1">
                    <mxGeometry x="378" y="-538" width="72" height="40" as="geometry"/>
                </mxCell>
                <mxCell id="qiQPY6fA3aQvSLMe_C2b-17" value="8%" style="rounded=0;whiteSpace=wrap;html=1;fillColor=#FFFFFF;" parent="1" vertex="1">
                    <mxGeometry x="450" y="-738" width="40" height="40" as="geometry"/>
                </mxCell>
                <mxCell id="qiQPY6fA3aQvSLMe_C2b-18" value="8%" style="rounded=0;whiteSpace=wrap;html=1;fillColor=#FFFFFF;" parent="1" vertex="1">
                    <mxGeometry x="450" y="-698" width="40" height="40" as="geometry"/>
                </mxCell>
                <mxCell id="qiQPY6fA3aQvSLMe_C2b-19" value="8%" style="rounded=0;whiteSpace=wrap;html=1;fillColor=#FFFFFF;" parent="1" vertex="1">
                    <mxGeometry x="450" y="-658" width="40" height="40" as="geometry"/>
                </mxCell>
                <mxCell id="qiQPY6fA3aQvSLMe_C2b-20" value="8%" style="rounded=0;whiteSpace=wrap;html=1;fillColor=#FFFFFF;" parent="1" vertex="1">
                    <mxGeometry x="450" y="-618" width="40" height="40" as="geometry"/>
                </mxCell>
                <mxCell id="qiQPY6fA3aQvSLMe_C2b-21" value="8%" style="rounded=0;whiteSpace=wrap;html=1;fillColor=#FFFFFF;" parent="1" vertex="1">
                    <mxGeometry x="450" y="-578" width="40" height="40" as="geometry"/>
                </mxCell>
                <mxCell id="qiQPY6fA3aQvSLMe_C2b-22" value="8%" style="rounded=0;whiteSpace=wrap;html=1;fillColor=#FFFFFF;" parent="1" vertex="1">
                    <mxGeometry x="450" y="-538" width="40" height="40" as="geometry"/>
                </mxCell>
                <mxCell id="qiQPY6fA3aQvSLMe_C2b-23" value="&lt;span&gt;2021年10月14日&lt;/span&gt;" style="rounded=0;whiteSpace=wrap;html=1;" parent="1" vertex="1">
                    <mxGeometry x="490" y="-738" width="102" height="40" as="geometry"/>
                </mxCell>
                <mxCell id="qiQPY6fA3aQvSLMe_C2b-24" value="&lt;span&gt;2021年10月14日&lt;/span&gt;" style="rounded=0;whiteSpace=wrap;html=1;" parent="1" vertex="1">
                    <mxGeometry x="490" y="-698" width="102" height="40" as="geometry"/>
                </mxCell>
                <mxCell id="qiQPY6fA3aQvSLMe_C2b-25" value="&lt;span&gt;2021年10月14日&lt;/span&gt;" style="rounded=0;whiteSpace=wrap;html=1;" parent="1" vertex="1">
                    <mxGeometry x="490" y="-658" width="102" height="40" as="geometry"/>
                </mxCell>
                <mxCell id="qiQPY6fA3aQvSLMe_C2b-26" value="&lt;span&gt;2021年10月14日&lt;/span&gt;" style="rounded=0;whiteSpace=wrap;html=1;" parent="1" vertex="1">
                    <mxGeometry x="490" y="-618" width="102" height="40" as="geometry"/>
                </mxCell>
                <mxCell id="qiQPY6fA3aQvSLMe_C2b-27" value="&lt;span&gt;2021年10月14日&lt;/span&gt;" style="rounded=0;whiteSpace=wrap;html=1;" parent="1" vertex="1">
                    <mxGeometry x="490" y="-578" width="102" height="40" as="geometry"/>
                </mxCell>
                <mxCell id="qiQPY6fA3aQvSLMe_C2b-28" value="&lt;span&gt;2021年10月14日&lt;/span&gt;" style="rounded=0;whiteSpace=wrap;html=1;" parent="1" vertex="1">
                    <mxGeometry x="490" y="-538" width="102" height="40" as="geometry"/>
                </mxCell>
                <mxCell id="qiQPY6fA3aQvSLMe_C2b-29" value="&lt;span&gt;2021年10月14日&lt;/span&gt;" style="rounded=0;whiteSpace=wrap;html=1;" parent="1" vertex="1">
                    <mxGeometry x="590" y="-738" width="102" height="40" as="geometry"/>
                </mxCell>
                <mxCell id="qiQPY6fA3aQvSLMe_C2b-30" value="&lt;span&gt;2021年10月14日&lt;/span&gt;" style="rounded=0;whiteSpace=wrap;html=1;" parent="1" vertex="1">
                    <mxGeometry x="590" y="-698" width="102" height="40" as="geometry"/>
                </mxCell>
                <mxCell id="qiQPY6fA3aQvSLMe_C2b-31" value="&lt;span&gt;2021年10月14日&lt;/span&gt;" style="rounded=0;whiteSpace=wrap;html=1;" parent="1" vertex="1">
                    <mxGeometry x="590" y="-658" width="102" height="40" as="geometry"/>
                </mxCell>
                <mxCell id="qiQPY6fA3aQvSLMe_C2b-32" value="&lt;span&gt;2021年10月14日&lt;/span&gt;" style="rounded=0;whiteSpace=wrap;html=1;" parent="1" vertex="1">
                    <mxGeometry x="590" y="-618" width="102" height="40" as="geometry"/>
                </mxCell>
                <mxCell id="qiQPY6fA3aQvSLMe_C2b-33" value="&lt;span&gt;2021年10月14日&lt;/span&gt;" style="rounded=0;whiteSpace=wrap;html=1;" parent="1" vertex="1">
                    <mxGeometry x="590" y="-578" width="102" height="40" as="geometry"/>
                </mxCell>
                <mxCell id="qiQPY6fA3aQvSLMe_C2b-34" value="&lt;span&gt;2021年10月14日&lt;/span&gt;" style="rounded=0;whiteSpace=wrap;html=1;" parent="1" vertex="1">
                    <mxGeometry x="590" y="-538" width="102" height="40" as="geometry"/>
                </mxCell>
                <mxCell id="qiQPY6fA3aQvSLMe_C2b-35" value="完了" style="rounded=0;whiteSpace=wrap;html=1;" parent="1" vertex="1">
                    <mxGeometry x="692" y="-738" width="128" height="40" as="geometry"/>
                </mxCell>
                <mxCell id="qiQPY6fA3aQvSLMe_C2b-37" value="完了" style="rounded=0;whiteSpace=wrap;html=1;" parent="1" vertex="1">
                    <mxGeometry x="692" y="-698" width="128" height="40" as="geometry"/>
                </mxCell>
                <mxCell id="qiQPY6fA3aQvSLMe_C2b-38" value="完了" style="rounded=0;whiteSpace=wrap;html=1;" parent="1" vertex="1">
                    <mxGeometry x="692" y="-658" width="128" height="40" as="geometry"/>
                </mxCell>
                <mxCell id="qiQPY6fA3aQvSLMe_C2b-39" value="完了" style="rounded=0;whiteSpace=wrap;html=1;" parent="1" vertex="1">
                    <mxGeometry x="692" y="-618" width="128" height="40" as="geometry"/>
                </mxCell>
                <mxCell id="qiQPY6fA3aQvSLMe_C2b-40" value="完了" style="rounded=0;whiteSpace=wrap;html=1;" parent="1" vertex="1">
                    <mxGeometry x="692" y="-578" width="128" height="40" as="geometry"/>
                </mxCell>
                <mxCell id="qiQPY6fA3aQvSLMe_C2b-41" value="完了" style="rounded=0;whiteSpace=wrap;html=1;" parent="1" vertex="1">
                    <mxGeometry x="692" y="-538" width="128" height="40" as="geometry"/>
                </mxCell>
                <mxCell id="qiQPY6fA3aQvSLMe_C2b-42" value="3200000" style="rounded=0;whiteSpace=wrap;html=1;fillColor=#FFFFFF;gradientColor=none;" parent="1" vertex="1">
                    <mxGeometry x="187" y="-449" width="130" height="40" as="geometry"/>
                </mxCell>
                <mxCell id="qiQPY6fA3aQvSLMe_C2b-43" value="256000" style="rounded=0;whiteSpace=wrap;html=1;fillColor=#FFFFFF;gradientColor=none;" parent="1" vertex="1">
                    <mxGeometry x="317" y="-449" width="130" height="40" as="geometry"/>
                </mxCell>
                <mxCell id="qiQPY6fA3aQvSLMe_C2b-44" value="3456000" style="rounded=0;whiteSpace=wrap;html=1;fillColor=#FFFFFF;gradientColor=none;" parent="1" vertex="1">
                    <mxGeometry x="447" y="-449" width="130" height="40" as="geometry"/>
                </mxCell>
            </root>
        </mxGraphModel>
    </diagram>
    <diagram id="gIurXZiu84MalaSHNMTA" name="仕入処理">
        <mxGraphModel dx="809" dy="339" grid="1" gridSize="10" guides="1" tooltips="1" connect="1" arrows="1" fold="1" page="1" pageScale="1" pageWidth="827" pageHeight="1169" math="0" shadow="0">
            <root>
                <mxCell id="tuiyZNg3dBRPK5lS14gB-0"/>
                <mxCell id="tuiyZNg3dBRPK5lS14gB-1" parent="tuiyZNg3dBRPK5lS14gB-0"/>
            </root>
        </mxGraphModel>
    </diagram>
</mxfile>